<svg width="50" height="50" viewBox="0 0 50 50" fill="none" xmlns="http://www.w3.org/2000/svg">
<path fill-rule="evenodd" clip-rule="evenodd" d="M2.08334 5.91252C2.08334 4.89696 2.48677 3.92299 3.20487 3.20489C3.92298 2.48678 4.89694 2.08335 5.9125 2.08335H44.0833C44.5866 2.08253 45.0851 2.18098 45.5503 2.37307C46.0155 2.56516 46.4382 2.84712 46.7943 3.2028C47.1503 3.55848 47.4328 3.9809 47.6254 4.44587C47.8179 4.91084 47.9169 5.40923 47.9167 5.91252V44.0833C47.9172 44.5867 47.8185 45.0853 47.6262 45.5505C47.4339 46.0157 47.1517 46.4384 46.7959 46.7944C46.44 47.1504 46.0175 47.4328 45.5524 47.6254C45.0873 47.818 44.5888 47.917 44.0854 47.9167H5.9125C5.40947 47.9167 4.91137 47.8176 4.44666 47.625C3.98195 47.4324 3.55973 47.1502 3.20414 46.7944C2.84854 46.4386 2.56653 46.0162 2.37422 45.5514C2.18191 45.0866 2.08306 44.5885 2.08334 44.0854V5.91252ZM20.225 19.5583H26.4313V22.675C27.3271 20.8833 29.6188 19.2708 33.0625 19.2708C39.6646 19.2708 41.2292 22.8396 41.2292 29.3875V41.5167H34.5479V30.8792C34.5479 27.15 33.6521 25.0458 31.3771 25.0458C28.2208 25.0458 26.9083 27.3146 26.9083 30.8792V41.5167H20.225V19.5583ZM8.76667 41.2313H15.45V19.2708H8.76667V41.2292V41.2313ZM16.4063 12.1083C16.4189 12.6806 16.317 13.2496 16.1068 13.7819C15.8965 14.3143 15.582 14.7993 15.1817 15.2084C14.7815 15.6176 14.3035 15.9427 13.776 16.1646C13.2484 16.3866 12.6818 16.5009 12.1094 16.5009C11.537 16.5009 10.9704 16.3866 10.4428 16.1646C9.91521 15.9427 9.43727 15.6176 9.03702 15.2084C8.63677 14.7993 8.32228 14.3143 8.112 13.7819C7.90173 13.2496 7.7999 12.6806 7.8125 12.1083C7.83724 10.9851 8.3008 9.91625 9.10393 9.13061C9.90706 8.34498 10.9859 7.90505 12.1094 7.90505C13.2329 7.90505 14.3117 8.34498 15.1148 9.13061C15.918 9.91625 16.3815 10.9851 16.4063 12.1083V12.1083Z" fill="black"/>
</svg>
