<svg width="50" height="49" viewBox="0 0 50 49" fill="none" xmlns="http://www.w3.org/2000/svg">
<path d="M42.6812 35.7083L34.2125 28.0083C33.8122 27.6445 33.2861 27.4504 32.7454 27.4671C32.2047 27.4839 31.6917 27.71 31.3146 28.0979L26.3292 33.225C25.1292 32.9958 22.7167 32.2437 20.2333 29.7667C17.75 27.2812 16.9979 24.8625 16.775 23.6708L21.8979 18.6833C22.2863 18.3065 22.5128 17.7934 22.5295 17.2525C22.5462 16.7116 22.3518 16.1855 21.9875 15.7854L14.2896 7.31874C13.9251 6.9174 13.4185 6.67396 12.8774 6.64011C12.3363 6.60627 11.8033 6.78469 11.3917 7.13749L6.87083 11.0146C6.51065 11.3761 6.29567 11.8572 6.26667 12.3667C6.23542 12.8875 5.63958 25.225 15.2062 34.7958C23.5521 43.1396 34.0062 43.75 36.8854 43.75C37.3062 43.75 37.5646 43.7375 37.6333 43.7333C38.1427 43.7048 38.6236 43.4889 38.9833 43.1271L42.8583 38.6042C43.2125 38.1938 43.3923 37.6613 43.3592 37.1202C43.3261 36.5791 43.0828 36.0725 42.6812 35.7083V35.7083Z" fill="black"/>
</svg>
